<svg width="46" height="15" viewBox="0 0 46 15" fill="none" xmlns="http://www.w3.org/2000/svg">
<path fill-rule="evenodd" clip-rule="evenodd" d="M7.60506 0.513184C7.59006 0.513184 7.57506 0.513184 7.56006 0.513184C5.54515 0.513184 3.60648 0.980664 1.72781 1.92375C0.965338 3.73492 0.535356 5.5761 0.512857 7.45477C0.482858 9.31844 0.867217 11.2271 1.71968 13.1739C3.68147 14.0264 5.64327 14.4639 7.60506 14.487C9.56685 14.4639 11.5286 14.0264 13.4898 13.1739C14.3429 11.2271 14.7273 9.31844 14.6973 7.45477C14.6748 5.5761 14.2448 3.73492 13.4823 1.92375C11.6036 0.980664 9.66498 0.513184 7.65006 0.513184C7.63506 0.513184 7.62006 0.513184 7.60506 0.513184V0.513184Z" fill="#FEFEFE"/>
<path d="M1.41119 1.50931C3.38798 0.498104 5.43977 0 7.56031 0C7.57531 0 7.59031 0 7.60531 0C7.62031 0 7.63531 0 7.65031 0C9.77084 0 11.8226 0.498104 13.7994 1.50931L13.9207 1.63743C14.7275 3.5386 15.1881 5.4779 15.2106 7.44719C15.2106 7.48469 15.2106 7.51469 15.2106 7.55281V7.68843C15.2031 9.5821 14.7956 11.5139 13.9207 13.4757L13.7844 13.6038C11.7251 14.5169 9.66522 14.9769 7.60531 15C5.54539 14.9769 3.48548 14.5169 1.42619 13.6038L1.28995 13.4757C0.414983 11.5139 0.00749969 9.5821 0 7.68843V7.55281C0 7.51469 0 7.48469 0 7.44719C0.0224991 5.4779 0.483105 3.5386 1.28995 1.63743L1.41119 1.50931V1.50931ZM7.60531 0.513104C7.59031 0.513104 7.57531 0.513104 7.56031 0.513104C5.54539 0.513104 3.60672 0.980584 1.72805 1.92367C0.965585 3.73484 0.535603 5.57602 0.513104 7.45469C0.483105 9.31836 0.867464 11.227 1.71993 13.1738C3.68172 14.0263 5.64352 14.4638 7.60531 14.4869C9.5671 14.4638 11.5289 14.0263 13.4901 13.1738C14.3432 11.227 14.7275 9.31836 14.6975 7.45469C14.675 5.57602 14.245 3.73484 13.4826 1.92367C11.6039 0.980584 9.66522 0.513104 7.65031 0.513104C7.63531 0.513104 7.62031 0.513104 7.60531 0.513104V0.513104Z" fill="#003399"/>
<path fill-rule="evenodd" clip-rule="evenodd" d="M7.74122 11.6875C7.6356 10.2463 7.70373 8.74446 7.27374 7.37139C6.87376 6.08894 5.35695 5.3571 5.32695 3.94591C5.29695 2.84408 6.13442 1.56913 7.70373 1.56913C9.17491 1.56163 10.088 2.63284 10.1936 3.82529C10.3217 5.20585 8.64681 6.13394 8.20933 7.44701C7.75622 8.79008 7.88497 10.2763 7.74122 11.6875Z" fill="#003399"/>
<path fill-rule="evenodd" clip-rule="evenodd" d="M8.32245 11.3402C8.26183 10.0878 8.26183 8.88847 8.60931 7.82414C8.99367 6.61732 9.79364 5.59861 11.0161 5.26675C11.8536 5.0405 13.0829 6.02109 12.8873 7.0248C12.721 7.83227 11.9136 8.78285 10.6161 8.88847C10.0124 8.94097 9.75614 9.42408 9.37866 9.70344C11.0686 9.5372 12.1629 8.87347 12.9248 8.17913C13.0379 8.76723 13.1135 9.75594 12.6529 10.0953C11.7479 10.7365 10.9105 10.2159 9.84614 10.5178C9.25054 10.6915 8.88055 11.069 8.32245 11.3402Z" fill="#003399"/>
<path fill-rule="evenodd" clip-rule="evenodd" d="M7.16752 11.3402C7.23502 10.0878 7.22752 8.88847 6.88816 7.82414C6.50318 6.61732 5.70383 5.59861 4.48139 5.26675C3.64392 5.0405 2.40648 6.02109 2.61022 7.0248C2.77646 7.83227 3.5833 8.78285 4.88137 8.88847C5.47759 8.94097 5.74133 9.42408 6.11882 9.70344C4.42077 9.5372 3.33456 8.87347 2.57272 8.17913C2.4596 8.76723 2.38398 9.75594 2.84396 10.0953C3.74954 10.7365 4.58701 10.2159 5.65071 10.5178C6.24694 10.6915 6.6088 11.069 7.16752 11.3402Z" fill="#003399"/>
<path fill-rule="evenodd" clip-rule="evenodd" d="M11.1889 13.2039V13.0002L11.3401 12.9627L11.1889 12.7365V12.359L11.8682 13.3021L11.627 13.3627L11.4607 13.1283L11.1889 13.2039V13.2039ZM11.1889 12.359V12.7365L11.0832 12.5852L11.0382 13.0383L11.1889 13.0002V13.2039L11.0157 13.2421L10.9851 13.5208L10.7439 13.5814L10.9026 12.3515L11.1439 12.2909L11.1889 12.359V12.359ZM8.94083 13.8608V13.6645H8.99332C9.07645 13.657 9.12957 13.6495 9.15207 13.6414C9.18207 13.6339 9.21207 13.6114 9.22769 13.5889C9.25019 13.5589 9.25769 13.5283 9.25769 13.4908C9.25019 13.4533 9.24269 13.4227 9.21957 13.4002C9.20457 13.3777 9.17457 13.3627 9.14457 13.3552C9.11457 13.3477 9.04645 13.3477 8.94083 13.3552V13.1589C9.00082 13.1589 9.03895 13.1514 9.05395 13.1514C9.09145 13.1439 9.12207 13.1208 9.14457 13.0983C9.16707 13.0758 9.17457 13.0458 9.16707 13.0077C9.16707 12.9702 9.15207 12.9402 9.12957 12.9246C9.11457 12.9021 9.08395 12.8871 9.03895 12.8871C9.02395 12.8871 8.99332 12.8871 8.94083 12.8946V12.6983C9.02395 12.6908 9.08395 12.6908 9.12207 12.6983C9.16707 12.6983 9.21207 12.714 9.25019 12.7365C9.28769 12.7515 9.31769 12.7815 9.34831 12.819C9.37081 12.8571 9.38581 12.9021 9.39331 12.9552C9.40081 13.0077 9.38581 13.0608 9.36331 13.1058C9.34081 13.1514 9.30269 13.1889 9.25019 13.2189C9.32519 13.2346 9.38581 13.2646 9.42331 13.3096C9.46893 13.3552 9.49143 13.4077 9.49893 13.4758C9.49893 13.5283 9.49143 13.5814 9.47643 13.6339C9.45393 13.687 9.42331 13.7245 9.38581 13.7627C9.34081 13.7927 9.29519 13.8152 9.23519 13.8302C9.19707 13.8377 9.09895 13.8452 8.95583 13.8608H8.94083V13.8608ZM10.3664 13.2264L10.6008 13.2571C10.5858 13.3852 10.5476 13.4908 10.4801 13.5664C10.412 13.6339 10.3139 13.687 10.1933 13.7095C10.042 13.732 9.90641 13.702 9.79329 13.6189C9.67267 13.5283 9.60455 13.4002 9.56705 13.2189C9.53643 13.0308 9.55955 12.8721 9.64205 12.7515C9.71767 12.6308 9.83829 12.5552 9.99703 12.5252C10.1402 12.5021 10.2533 12.5252 10.3589 12.5927C10.4195 12.6308 10.472 12.6908 10.5101 12.7815L10.2914 12.8721C10.2689 12.819 10.2308 12.774 10.1858 12.7515C10.1327 12.7215 10.0802 12.714 10.0195 12.7215C9.93641 12.7365 9.87641 12.7815 9.83079 12.8496C9.78579 12.9246 9.77829 13.0233 9.80079 13.1589C9.83079 13.3021 9.87641 13.4002 9.93641 13.4533C9.99703 13.5058 10.0727 13.5283 10.1552 13.5133C10.2158 13.4983 10.2614 13.4683 10.2989 13.4227C10.3364 13.3777 10.3589 13.3096 10.3664 13.2264V13.2264ZM8.94083 12.6983V12.8946C8.91083 12.8946 8.8802 12.9021 8.84271 12.9021L8.70709 12.9177L8.72959 13.1814L8.8877 13.1664C8.9027 13.1664 8.92583 13.1664 8.94083 13.1589V13.3552C8.94083 13.3552 8.94083 13.3552 8.93333 13.3552L8.75208 13.3702L8.77458 13.6795L8.94083 13.6645V13.8608L8.56334 13.8983L8.45772 12.744L8.91833 12.7065C8.92583 12.6983 8.93333 12.6983 8.94083 12.6983V12.6983ZM7.48464 13.4608V13.2646C7.53714 13.2646 7.56776 13.2571 7.59026 13.2496C7.62026 13.2421 7.64276 13.2189 7.66588 13.1964C7.68088 13.1664 7.68838 13.1364 7.68838 13.1058C7.69588 13.0608 7.68088 13.0308 7.65776 13.0002C7.63526 12.9702 7.60526 12.9552 7.56776 12.9477C7.54463 12.9477 7.52214 12.9402 7.48464 12.9402V12.744C7.59776 12.744 7.66588 12.7515 7.70338 12.7665C7.7715 12.7815 7.824 12.819 7.86962 12.8796C7.91462 12.9402 7.93712 13.0152 7.92962 13.1058C7.92962 13.1739 7.91462 13.2346 7.89212 13.2871C7.8615 13.3321 7.8315 13.3702 7.794 13.4002C7.74838 13.4227 7.71088 13.4377 7.66588 13.4533C7.62026 13.4608 7.56026 13.4608 7.48464 13.4608V13.4608ZM7.48464 12.744V12.9402C7.46214 12.9402 7.43151 12.9402 7.39402 12.9402L7.2809 12.9327V13.2646H7.40152C7.43151 13.2646 7.46214 13.2646 7.48464 13.2646V13.4608C7.46964 13.4608 7.44651 13.4608 7.42402 13.4608H7.2734L7.2659 13.8983L7.03153 13.8908L7.05466 12.7365L7.42402 12.744C7.44651 12.744 7.46964 12.744 7.48464 12.744V12.744ZM5.3041 13.3477V12.9927C5.37223 13.0077 5.41722 13.0077 5.43972 13.0077C5.47035 13.0002 5.49285 12.9927 5.51534 12.9702C5.53034 12.9477 5.54534 12.9246 5.55284 12.8871C5.56034 12.8496 5.55284 12.819 5.53784 12.789C5.52284 12.759 5.49285 12.744 5.45472 12.729C5.43972 12.7215 5.38723 12.714 5.3041 12.6983V12.5021L5.40222 12.5177C5.52284 12.5402 5.60597 12.5627 5.65846 12.5927C5.71159 12.6233 5.74908 12.6683 5.77158 12.729C5.79471 12.7815 5.80221 12.8496 5.78721 12.9177C5.77158 13.0002 5.73409 13.0683 5.67409 13.1133C5.62097 13.1589 5.53784 13.1814 5.43222 13.1814C5.47785 13.2189 5.51534 13.2571 5.53784 13.2946C5.56784 13.3402 5.59847 13.4077 5.63596 13.5058L5.73409 13.7552L5.46222 13.702L5.3416 13.4227C5.3266 13.4002 5.3191 13.3702 5.3041 13.3477V13.3477ZM5.96783 12.6308L6.19407 12.6533L6.14157 13.2796C6.13407 13.3777 6.13407 13.4458 6.13407 13.4683C6.14157 13.5208 6.16407 13.5589 6.19407 13.5889C6.23219 13.6264 6.27719 13.6414 6.34531 13.6495C6.41343 13.657 6.46593 13.6414 6.49593 13.6189C6.53405 13.5964 6.55655 13.5664 6.57155 13.5283C6.57905 13.4908 6.58655 13.4227 6.59405 13.3321L6.64717 12.6908L6.88091 12.714L6.82842 13.3171C6.82092 13.4608 6.80529 13.5589 6.78279 13.6114C6.76779 13.6645 6.73779 13.717 6.70717 13.747C6.66967 13.7852 6.61717 13.8152 6.55655 13.8302C6.50343 13.8533 6.42843 13.8533 6.33781 13.8452C6.22469 13.8377 6.14157 13.8152 6.08845 13.7852C6.03595 13.7552 5.99033 13.717 5.96033 13.6795C5.93033 13.6339 5.91533 13.5889 5.90783 13.5439C5.90033 13.4758 5.90033 13.3777 5.90783 13.2496L5.96783 12.6308V12.6308ZM4.13478 12.9702L4.17978 12.7815L4.67038 12.9096L4.54976 13.3552C4.48914 13.3927 4.41352 13.4152 4.3079 13.4227C4.20977 13.4302 4.11978 13.4227 4.02916 13.4002C3.90791 13.3702 3.81042 13.3171 3.74229 13.2496C3.66667 13.1739 3.62167 13.0833 3.59917 12.9852C3.58355 12.8796 3.58355 12.774 3.61417 12.6683C3.64417 12.5552 3.69667 12.4571 3.77229 12.374C3.84041 12.299 3.93104 12.2534 4.03666 12.2309C4.11978 12.2084 4.21727 12.2159 4.32352 12.2459C4.45914 12.2834 4.56476 12.3365 4.62476 12.4196C4.68538 12.4946 4.71538 12.5927 4.70788 12.6983L4.47414 12.6833C4.47414 12.6233 4.45914 12.5702 4.42102 12.5252C4.38352 12.4871 4.33852 12.4496 4.2704 12.4346C4.17228 12.4121 4.08915 12.4196 4.01353 12.4646C3.93854 12.5102 3.88541 12.6002 3.84791 12.7215C3.81042 12.8571 3.81792 12.9627 3.85541 13.0458C3.90041 13.1283 3.96853 13.1814 4.05916 13.2039C4.11165 13.2189 4.15728 13.2189 4.20977 13.2189C4.2629 13.2114 4.3079 13.1964 4.35352 13.1814L4.39102 13.0383L4.13478 12.9702V12.9702ZM5.3041 12.5021L4.91162 12.4346L4.71538 13.5739L4.94162 13.6114L5.02474 13.1364L5.07786 13.1439C5.13036 13.1514 5.16848 13.1664 5.19098 13.1739C5.21348 13.1889 5.22848 13.2114 5.25098 13.2346C5.25848 13.2571 5.2816 13.2946 5.3041 13.3477V12.9927C5.2816 12.9927 5.25848 12.9852 5.22848 12.9852L5.06286 12.9552L5.10786 12.6683L5.2891 12.6983C5.2966 12.6983 5.3041 12.6983 5.3041 12.6983V12.5021V12.5021Z" fill="#003399"/>
<path fill-rule="evenodd" clip-rule="evenodd" d="M41.2633 11.0915V8.96342H42.1989V5.22108L41.2633 7.09225V2.42182H44.9375L45.8731 13.1814H42.1989V11.0915H41.2633V11.0915ZM41.2633 2.42182V7.09225L40.3277 8.96342H41.2633V11.0915H39.4977L38.7734 13.0683H36.4947V10.6084L39.0371 5.12296H38.5165L39.9652 2.42182H41.2633V2.42182ZM36.4947 6.00604L37.6341 3.30491L36.4947 2.67118V6.00604ZM27.4332 4.97234C27.4864 4.66298 27.4864 4.36111 27.4332 4.07425V4.97234ZM36.4947 2.67118V6.00604L36.3441 6.3679C34.0955 4.7611 30.7756 6.22479 30.5869 7.92221C30.3987 9.69527 31.7493 11.129 35.1973 10.0577L34.0123 13.2264C29.4631 13.732 27.6976 11.9289 27.4332 9.82401V8.63156C27.5014 8.08096 27.6445 7.54536 27.8407 7.04725C30.0819 1.47873 33.718 2.73118 35.0992 2.62556L35.3029 2.00684L36.4947 2.67118V2.67118ZM36.4947 10.6084L35.3554 13.0683H36.4947V10.6084ZM23.344 13.0001C25.7808 12.5176 28.1726 9.58964 25.7733 7.25849C26.7089 6.76039 27.2901 5.86293 27.4332 4.97234V4.07425C27.2676 3.14616 26.5508 2.39182 25.2002 2.36932L23.344 2.3312V4.39861H24.1134C24.9358 4.39861 24.8302 6.52665 23.804 6.52665H23.344V8.15658C24.4533 8.36782 24.0609 9.90651 23.344 10.3821V13.0001V13.0001ZM27.4332 8.63156V9.82401C27.3882 9.43153 27.3882 9.03154 27.4332 8.63156ZM20.1298 2.2637L18.6286 5.17608L19.2998 5.12296L17.4893 13.0683H22.6728C22.899 13.0683 23.1178 13.0458 23.344 13.0001V10.3821C23.2159 10.4727 23.0722 10.5252 22.929 10.5252H21.0654L21.6841 8.13346H23.0797C23.1778 8.13346 23.2684 8.14095 23.344 8.15658V6.52665H22.0459L22.5666 4.39861H23.344V2.3312L20.1298 2.2637V2.2637Z" fill="#003399"/>
</svg>
