<svg width="23" height="22" viewBox="0 0 23 22" fill="none" xmlns="http://www.w3.org/2000/svg">
<path d="M18.9707 21.3739H3.82973C2.70022 21.3739 1.78125 20.455 1.78125 19.3254V8.54772C1.78125 8.15423 2.10023 7.83521 2.49376 7.83521C2.8873 7.83521 3.20628 8.15423 3.20628 8.54772V19.3254C3.20628 19.6692 3.48594 19.9488 3.82973 19.9488H18.9707C19.3145 19.9488 19.5941 19.6692 19.5941 19.3254V8.54772C19.5941 8.15423 19.9131 7.83521 20.3066 7.83521C20.7002 7.83521 21.0191 8.15423 21.0191 8.54772V19.3254C21.0191 20.4549 20.1002 21.3739 18.9707 21.3739Z" fill="#868889"/>
<path d="M22.0879 11.0413C21.9056 11.0413 21.7233 10.9718 21.5841 10.8326L12.7227 1.9713C11.9935 1.24205 10.807 1.24205 10.0777 1.9713L1.21634 10.8327C0.938103 11.1109 0.486948 11.1109 0.208711 10.8327C-0.0695704 10.5544 -0.0695704 10.1033 0.208711 9.82504L9.07008 0.963631C10.3549 -0.32121 12.4456 -0.32121 13.7304 0.963631L22.5917 9.825C22.87 10.1033 22.87 10.5544 22.5917 10.8326C22.4527 10.9718 22.2703 11.0413 22.0879 11.0413Z" fill="#868889"/>
<path d="M14.2503 21.374H8.55016C8.15663 21.374 7.83765 21.055 7.83765 20.6615V14.3379C7.83765 13.1102 8.8365 12.1113 10.0643 12.1113H12.7362C13.9639 12.1113 14.9628 13.1102 14.9628 14.3379V20.6615C14.9628 21.055 14.6438 21.374 14.2503 21.374ZM9.26268 19.949H13.5378V14.3379C13.5378 13.896 13.1782 13.5364 12.7362 13.5364H10.0643C9.62227 13.5364 9.26268 13.896 9.26268 14.3379V19.949Z" fill="#868889"/>
</svg>
