<svg width="15" height="16" viewBox="0 0 15 16" fill="none" xmlns="http://www.w3.org/2000/svg">
<path d="M7.07027 1.6C8.53205 1.6 9.72162 2.6768 9.72162 4H11.4892C11.4892 1.7944 9.50686 0 7.07027 0C4.63368 0 2.65135 1.7944 2.65135 4V5.6H1.76757C0.792754 5.6 0 6.3176 0 7.2V14.4C0 15.2824 0.792754 16 1.76757 16H12.373C13.3478 16 14.1405 15.2824 14.1405 14.4V7.2C14.1405 6.3176 13.3478 5.6 12.373 5.6H11.4892H9.72162H4.41892V4C4.41892 2.6768 5.60849 1.6 7.07027 1.6ZM12.3747 14.4H7.95405V12.5776C8.47991 12.3 8.83784 11.7896 8.83784 11.2C8.83784 10.3176 8.04508 9.6 7.07027 9.6C6.09546 9.6 5.3027 10.3176 5.3027 11.2C5.3027 11.7888 5.66064 12.3 6.18649 12.5776V14.4H1.76757V7.2H12.373L12.3747 14.4Z" fill="#0280FD"/>
<path d="M11.4892 4H9.72162V5.6H11.4892V4Z" fill="#0280FD"/>
</svg>
