<svg width="22" height="15" viewBox="0 0 22 15" fill="none" xmlns="http://www.w3.org/2000/svg">
<path d="M20.3571 0H1.07143C0.479799 0 0 0.479799 0 1.07143V13.9286C0 14.5202 0.479799 15 1.07143 15H20.3571C20.9488 15 21.4286 14.5202 21.4286 13.9286V1.07143C21.4286 0.479799 20.9488 0 20.3571 0ZM5.89286 9.9067V10.4464C5.89286 10.5944 5.77299 10.7143 5.625 10.7143H5.08929C4.94129 10.7143 4.82143 10.5944 4.82143 10.4464V9.901C4.44342 9.88158 4.07578 9.74966 3.77109 9.52098C3.64051 9.42288 3.63382 9.22734 3.75201 9.11451L4.14542 8.73917C4.23817 8.65078 4.37612 8.64676 4.4846 8.71473C4.61417 8.79576 4.76116 8.83929 4.91384 8.83929H5.85502C6.07266 8.83929 6.25011 8.64107 6.25011 8.39766C6.25011 8.19844 6.12924 8.02299 5.95647 7.97143L4.44978 7.51942C3.82734 7.33259 3.39241 6.73527 3.39241 6.06663C3.39241 5.24565 4.03025 4.57868 4.82109 4.55759V4.01786C4.82109 3.86987 4.94096 3.75 5.08895 3.75H5.62467C5.77266 3.75 5.89252 3.86987 5.89252 4.01786V4.56328C6.27054 4.5827 6.63817 4.71429 6.94286 4.9433C7.07344 5.04141 7.08013 5.23694 6.96194 5.34978L6.56853 5.72511C6.47578 5.8135 6.33783 5.81752 6.22935 5.74955C6.09978 5.66819 5.95279 5.625 5.80011 5.625H4.85893C4.64129 5.625 4.46384 5.82321 4.46384 6.06663C4.46384 6.26585 4.58471 6.44129 4.75748 6.49286L6.26417 6.94487C6.88661 7.1317 7.32154 7.72902 7.32154 8.39766C7.32154 9.21897 6.68371 9.8856 5.89286 9.9067V9.9067ZM13.9286 9.375C13.9286 9.52299 13.8087 9.64286 13.6607 9.64286H9.91071C9.76272 9.64286 9.64286 9.52299 9.64286 9.375V8.83929C9.64286 8.69129 9.76272 8.57143 9.91071 8.57143H13.6607C13.8087 8.57143 13.9286 8.69129 13.9286 8.83929V9.375ZM19.2857 9.375C19.2857 9.52299 19.1658 9.64286 19.0179 9.64286H16.3393C16.1913 9.64286 16.0714 9.52299 16.0714 9.375V8.83929C16.0714 8.69129 16.1913 8.57143 16.3393 8.57143H19.0179C19.1658 8.57143 19.2857 8.69129 19.2857 8.83929V9.375ZM19.2857 6.16071C19.2857 6.30871 19.1658 6.42857 19.0179 6.42857H9.91071C9.76272 6.42857 9.64286 6.30871 9.64286 6.16071V5.625C9.64286 5.47701 9.76272 5.35714 9.91071 5.35714H19.0179C19.1658 5.35714 19.2857 5.47701 19.2857 5.625V6.16071Z" fill="#9A9A9A"/>
</svg>
