<svg width="22" height="25" viewBox="0 0 22 25" fill="none" xmlns="http://www.w3.org/2000/svg">
<path d="M21.8397 17.537L19.4205 13.0706V8.42034C19.4205 3.77735 15.6431 0 11.0002 0C6.35717 0 2.57982 3.77735 2.57982 8.42034V13.0706L0.160521 17.5369C0.0508082 17.7394 -0.00441068 17.967 0.000275233 18.1972C0.00496114 18.4275 0.069391 18.6526 0.187252 18.8505C0.305112 19.0484 0.47236 19.2123 0.672608 19.3261C0.872857 19.4399 1.09923 19.4997 1.32956 19.4997H6.1455C6.13206 19.6471 6.12528 19.7949 6.12517 19.9429C6.12517 21.2358 6.63877 22.4758 7.553 23.39C8.46723 24.3042 9.70719 24.8178 11.0001 24.8178C12.293 24.8178 13.533 24.3042 14.4472 23.39C15.3614 22.4758 15.875 21.2358 15.875 19.9429C15.875 19.7933 15.8679 19.6458 15.8547 19.4997H20.6706C20.9009 19.4997 21.1273 19.4398 21.3275 19.326C21.5277 19.2122 21.6949 19.0483 21.8128 18.8505C21.9306 18.6526 21.995 18.4275 21.9997 18.1972C22.0044 17.967 21.9492 17.7395 21.8395 17.537H21.8397ZM14.1024 19.9429C14.1027 20.3692 14.0152 20.791 13.8453 21.182C13.6753 21.573 13.4266 21.9248 13.1147 22.2154C12.8027 22.506 12.4342 22.7291 12.0322 22.871C11.6302 23.0128 11.2032 23.0702 10.778 23.0397C10.3528 23.0092 9.93839 22.8913 9.56073 22.6935C9.18308 22.4957 8.85025 22.2222 8.58302 21.89C8.31579 21.5578 8.1199 21.1741 8.00756 20.7629C7.89523 20.3516 7.86886 19.9216 7.93011 19.4997H14.0701C14.0914 19.6465 14.1022 19.7946 14.1024 19.9429V19.9429ZM2.0736 17.727L4.35252 13.5199V8.42034C4.35252 6.65727 5.05289 4.96642 6.29957 3.71975C7.54624 2.47308 9.23709 1.7727 11.0002 1.7727C12.7632 1.7727 14.4541 2.47308 15.7007 3.71975C16.9474 4.96642 17.6478 6.65727 17.6478 8.42034V13.5199L19.9266 17.727H2.0736Z" fill="black"/>
</svg>
