<svg width="20" height="18" viewBox="0 0 20 18" fill="none" xmlns="http://www.w3.org/2000/svg">
<path d="M0.1 3C0.1 2.23087 0.405535 1.49325 0.94939 0.94939C1.49325 0.405535 2.23087 0.1 3 0.1H17C17.7691 0.1 18.5068 0.405535 19.0506 0.94939C19.5945 1.49325 19.9 2.23087 19.9 3V15C19.9 15.7691 19.5945 16.5068 19.0506 17.0506C18.5068 17.5945 17.7691 17.9 17 17.9H3C2.23087 17.9 1.49325 17.5945 0.94939 17.0506C0.405535 16.5068 0.1 15.7691 0.1 15V3ZM3 1.9C2.70826 1.9 2.42847 2.01589 2.22218 2.22218C2.01589 2.42847 1.9 2.70826 1.9 3V15C1.9 15.2917 2.01589 15.5715 2.22218 15.7778C2.42847 15.9841 2.70826 16.1 3 16.1H17C17.2917 16.1 17.5715 15.9841 17.7778 15.7778C17.9841 15.5715 18.1 15.2917 18.1 15V3C18.1 2.70826 17.9841 2.42847 17.7778 2.22218C17.5715 2.01589 17.2917 1.9 17 1.9H3Z" fill="#0280FD" stroke="white" stroke-width="0.2"/>
<path d="M6 5.9H5.9V6V8V8.1H6H8H8.1V8V6V5.9H8H6ZM4.1 5C4.1 4.76131 4.19482 4.53239 4.3636 4.3636C4.53239 4.19482 4.76131 4.1 5 4.1H9C9.23869 4.1 9.46761 4.19482 9.6364 4.3636C9.80518 4.53239 9.9 4.76131 9.9 5V9C9.9 9.23869 9.80518 9.46761 9.6364 9.6364C9.46761 9.80518 9.23869 9.9 9 9.9H5C4.76131 9.9 4.53239 9.80518 4.3636 9.6364C4.19482 9.46761 4.1 9.23869 4.1 9V5ZM12.1 5C12.1 4.76131 12.1948 4.53239 12.3636 4.3636C12.5324 4.19482 12.7613 4.1 13 4.1H15C15.2387 4.1 15.4676 4.19482 15.6364 4.3636C15.8052 4.53239 15.9 4.7613 15.9 5C15.9 5.2387 15.8052 5.46761 15.6364 5.6364C15.4676 5.80518 15.2387 5.9 15 5.9H13C12.7613 5.9 12.5324 5.80518 12.3636 5.6364C12.1948 5.46761 12.1 5.23869 12.1 5ZM12.1 9C12.1 8.76131 12.1948 8.53239 12.3636 8.3636C12.5324 8.19482 12.7613 8.1 13 8.1H15C15.2387 8.1 15.4676 8.19482 15.6364 8.3636C15.8052 8.53239 15.9 8.7613 15.9 9C15.9 9.2387 15.8052 9.46761 15.6364 9.6364C15.4676 9.80518 15.2387 9.9 15 9.9H13C12.7613 9.9 12.5324 9.80518 12.3636 9.6364C12.1948 9.46761 12.1 9.23869 12.1 9ZM4.1 13C4.1 12.7613 4.19482 12.5324 4.3636 12.3636C4.53239 12.1948 4.76131 12.1 5 12.1H15C15.2387 12.1 15.4676 12.1948 15.6364 12.3636C15.8052 12.5324 15.9 12.7613 15.9 13C15.9 13.2387 15.8052 13.4676 15.6364 13.6364C15.4676 13.8052 15.2387 13.9 15 13.9H5C4.7613 13.9 4.53239 13.8052 4.3636 13.6364C4.19482 13.4676 4.1 13.2387 4.1 13Z" fill="#0280FD" stroke="white" stroke-width="0.2"/>
</svg>
