<svg width="34" height="30" viewBox="0 0 34 30" fill="none" xmlns="http://www.w3.org/2000/svg">
<path d="M33.494 11.1621H23.6722C23.5034 11.1621 23.3652 11.3002 23.3652 11.469V13.3106C23.3652 13.4794 23.5034 13.6175 23.6722 13.6175H33.494C33.6628 13.6175 33.8009 13.4794 33.8009 13.3106V11.469C33.8009 11.3002 33.6628 11.1621 33.494 11.1621ZM28.3529 16.3799H23.6722C23.5034 16.3799 23.3652 16.5181 23.3652 16.6869V18.5285C23.3652 18.6973 23.5034 18.8354 23.6722 18.8354H28.3529C28.5217 18.8354 28.6598 18.6973 28.6598 18.5285V16.6869C28.6598 16.5181 28.5217 16.3799 28.3529 16.3799ZM15.55 7.72827H13.8887C13.6508 7.72827 13.459 7.9201 13.459 8.15798V17.6729C13.459 17.811 13.5242 17.9376 13.6355 18.0182L19.3483 22.1848C19.5401 22.3229 19.8087 22.2846 19.9468 22.0927L20.9328 20.7461V20.7422C21.0709 20.5504 21.0287 20.2818 20.8369 20.1437L15.9758 16.6293V8.15798C15.9797 7.9201 15.784 7.72827 15.55 7.72827V7.72827Z" fill="#00CCFF"/>
<path d="M28.1151 21.2102H25.8975C25.6826 21.2102 25.4793 21.3215 25.3642 21.5056C24.8769 22.2768 24.3091 22.9904 23.6569 23.6427C22.5327 24.7668 21.2244 25.6492 19.7703 26.2631C18.2625 26.9 16.6626 27.2223 15.0129 27.2223C13.3593 27.2223 11.7594 26.9 10.2554 26.2631C8.80132 25.6492 7.49302 24.7668 6.36888 23.6427C5.24474 22.5185 4.36231 21.2102 3.74844 19.7561C3.11156 18.2522 2.78928 16.6523 2.78928 14.9987C2.78928 13.3451 3.11156 11.749 3.74844 10.2412C4.36231 8.78712 5.24474 7.47882 6.36888 6.35468C7.49302 5.23054 8.80132 4.3481 10.2554 3.73424C11.7594 3.09735 13.3631 2.77507 15.0129 2.77507C16.6665 2.77507 18.2664 3.09735 19.7703 3.73424C21.2244 4.3481 22.5327 5.23054 23.6569 6.35468C24.3091 7.00691 24.8769 7.72053 25.3642 8.4917C25.4793 8.67585 25.6826 8.78712 25.8975 8.78712H28.1151C28.3798 8.78712 28.5486 8.51088 28.4297 8.27684C25.9282 3.3007 20.8561 0.0663935 15.1932 0.00117028C6.90217 -0.102419 0.0153728 6.68463 2.62113e-05 14.968C-0.0153204 23.2667 6.71034 30 15.009 30C20.7448 30 25.9013 26.7542 28.4297 21.7205C28.5486 21.4865 28.3759 21.2102 28.1151 21.2102V21.2102Z" fill="#00CCFF"/>
</svg>
