<svg width="17" height="18" viewBox="0 0 17 18" fill="none" xmlns="http://www.w3.org/2000/svg">
<path d="M8.18182 0C5.02773 0 2.45455 2.57318 2.45455 5.72727C2.45455 7.69909 3.46091 9.45 4.986 10.4834C2.06755 11.7352 0 14.6315 0 18H1.63636C1.63636 14.3755 4.55727 11.4545 8.18182 11.4545C11.8064 11.4545 14.7273 14.3755 14.7273 18H16.3636C16.3636 14.6315 14.2961 11.736 11.3776 10.4825C12.156 9.95709 12.7938 9.24889 13.2351 8.4199C13.6764 7.59091 13.9078 6.66641 13.9091 5.72727C13.9091 2.57318 11.3359 0 8.18182 0ZM8.18182 1.63636C10.4506 1.63636 12.2727 3.45845 12.2727 5.72727C12.2727 7.99609 10.4506 9.81818 8.18182 9.81818C5.913 9.81818 4.09091 7.99609 4.09091 5.72727C4.09091 3.45845 5.913 1.63636 8.18182 1.63636Z" fill="#0280FD"/>
</svg>
